<svg width="107.12509765624999px" height="170.025048828125px" xmlns="http://www.w3.org/2000/svg" viewBox="196.437451171875 -10.012524414062497 107.12509765624999 170.025048828125" style="background: rgba(0, 0, 0, 0);" preserveAspectRatio="xMidYMid"><defs><filter id="editing-hole" x="-100%" y="-100%" width="300%" height="300%"><feFlood flood-color="#000" result="black"></feFlood><feMorphology operator="dilate" radius="2" in="SourceGraphic" result="erode"></feMorphology><feGaussianBlur in="erode" stdDeviation="4" result="blur"></feGaussianBlur><feOffset in="blur" dx="2" dy="2" result="offset"></feOffset><feComposite operator="atop" in="offset" in2="black" result="merge"></feComposite><feComposite operator="in" in="merge" in2="SourceGraphic" result="inner-shadow"></feComposite></filter></defs><g filter="url(#editing-hole)"><g transform="translate(219.4699993133545, 96.56999969482422)"><path d="M18.05-43.14L18.05-11.07L18.05-11.07Q18.05 0 8 0L8 0L8 0Q4.42 0 1.92-1.41L1.92-1.41L1.92-6.40L1.92-6.40Q4.48-4.74 7.30-4.74L7.30-4.74L7.30-4.74Q12.86-4.74 12.86-10.62L12.86-10.62L12.86-43.14L18.05-43.14ZM59.14-43.14L59.14 0L53.95 0L53.95-19.52L33.02-19.52L33.02 0L27.84 0L27.84-43.14L33.02-43.14L33.02-24.19L53.95-24.19L53.95-43.14L59.14-43.14Z" fill="#ccc"></path></g></g><style>text {
  font-size: 64px;
  font-family: Arial Black;
  dominant-baseline: central;
  text-anchor: middle;
}</style></svg>